<?xml version="1.0" encoding="UTF-8"?>
<!DOCTYPE svg PUBLIC "-//W3C//DTD SVG 1.1//EN" "http://www.w3.org/Graphics/SVG/1.1/DTD/svg11.dtd">
<!-- Creator: CorelDRAW X5 -->
<svg xmlns="http://www.w3.org/2000/svg" xml:space="preserve" width="240mm" height="180mm" shape-rendering="geometricPrecision" text-rendering="geometricPrecision" image-rendering="optimizeQuality" fill-rule="evenodd" clip-rule="evenodd"
viewBox="0 0 24000 18000"
 xmlns:xlink="http://www.w3.org/1999/xlink">
<a>
 <g id="Layer_x0020_1">
  <metadata id="CorelCorpID_0Corel-Layer"/>
  <g id="ake_no" onclick="parent.replacechar('ake_no')" onmousemove="parent.showtooltip('ake_no','Ak&#232;ne sans pappus')" onmouseout="parent.hidetooltip('ake_no')" cursor="pointer" >
   <path fill="#DBE501" stroke="black" stroke-width="7.62" d="M3441 1306c255,55 334,7 481,9 88,1 257,-190 448,-120 630,372 63,5129 -476,6550 -408,-310 -1528,-5808 -453,-6439z"/>
   <path fill="none" stroke="black" stroke-width="7.62" d="M3918 1343c-623,1871 -265,4053 -22,6378"/>
   <g>
    <path fill="white" stroke="black" stroke-width="7.62" d="M3677 1040c0,0 418,-46 510,-7 50,-3 100,29 148,152 -295,-5 -288,122 -432,123 -290,20 -342,31 -458,-10 -12,-4 193,-244 233,-258z"/>
    <path fill="none" stroke="black" stroke-width="7.62" d="M3786 1150c-113,0 -191,164 -328,136"/>
    <path fill="none" stroke="black" stroke-width="7.62" d="M3788 1148c60,28 63,138 143,158"/>
    <path fill="none" stroke="black" stroke-width="7.62" d="M3788 1155c107,-81 301,4 412,-121"/>
    <path fill="none" stroke="black" stroke-width="7.62" d="M3776 1148c-18,-41 -87,-44 -99,-98"/>
   </g>
  </g>
  <g id="ake_ecaille" onclick="parent.replacechar('ake_ecaille')" onmousemove="parent.showtooltip('ake_ecaille','Ak&#232;ne &#224; pappus &#233;cailleux')" onmouseout="parent.hidetooltip('ake_ecaille')" cursor="pointer" >
   <path fill="#DBE501" stroke="black" stroke-width="7.62" d="M7448 1306c255,55 334,7 481,9 88,1 257,-190 448,-120 630,372 63,5129 -476,6550 -408,-310 -1528,-5808 -453,-6439z"/>
   <path fill="none" stroke="black" stroke-width="7.62" d="M7925 1343c-623,1871 -265,4053 -22,6378"/>
   <path fill="none" stroke="black" stroke-width="7.62" d="M7455 1303c-101,-154 -143,-423 -178,-514 66,23 102,110 120,113 -12,-60 -156,-338 -162,-418 36,44 164,260 240,388 0,13 15,-14 65,-37 28,59 124,419 124,354 0,-133 74,-325 81,-457 18,-33 34,13 65,57 0,-40 92,-502 92,-489 0,212 -36,483 -19,687 43,-252 37,-161 37,-200 0,-27 68,398 81,384 27,-27 157,-327 170,-367 0,-1 17,63 28,96 66,-66 150,-389 228,-473 -16,112 -83,554 -146,753 -81,-10 -233,103 -339,134 -254,28 -379,28 -487,-9z"/>
  </g>
  <g id="ake_dente" onclick="parent.replacechar('ake_dente')" onmousemove="parent.showtooltip('ake_dente','Ak&#232;ne &#224; pappus dent&#233;')" onmouseout="parent.hidetooltip('ake_dente')" cursor="pointer" >
    <metadata id="CorelCorpID_1">
     <odm name="Name" value="ake_dente" type="0"/>
    </metadata>
   <polygon fill="white" stroke="#141516" stroke-width="7.62" points="12446,2558 12518,195 12330,2403 12122,2412 11926,205 11993,2563 "/>
   <path fill="#DBE501" stroke="black" stroke-width="7.62" d="M11994 2527c207,45 271,6 390,7 72,1 -2,-1 153,56 510,302 261,4003 -175,5155 -331,-251 -1238,-4706 -367,-5218z"/>
   <path fill="none" stroke="black" stroke-width="7.62" d="M12381 2557c-505,1516 -215,3284 -18,5168"/>
  </g>
  <g id="ake_plumose" onclick="parent.replacechar('ake_plumose')" onmousemove="parent.showtooltip('ake_plumose','Ak&#232;ne &#224; pappus plumeux')" onmouseout="parent.hidetooltip('ake_plumose')" cursor="pointer" >
   <line fill="none" stroke="black" stroke-width="4.62" x1="15765" y1="437" x2="16405" y2= "3576" />
   <line fill="none" stroke="black" stroke-width="4.62" x1="16152" y1="375" x2="16462" y2= "3576" />
   <line fill="none" stroke="black" stroke-width="4.62" x1="16543" y1="302" x2="16518" y2= "3570" />
   <line fill="none" stroke="black" stroke-width="4.62" x1="17050" y1="365" x2="16555" y2= "3565" />
   <line fill="none" stroke="black" stroke-width="4.62" x1="17412" y1="473" x2="16606" y2= "3550" />
   <line fill="none" stroke="black" stroke-width="4.62" x1="17819" y1="592" x2="16663" y2= "3524" />
   <line fill="none" stroke="black" stroke-width="4.62" x1="18176" y1="782" x2="16730" y2= "3488" />
   <line fill="none" stroke="black" stroke-width="4.62" x1="15409" y1="592" x2="16359" y2= "3587" />
   <line fill="none" stroke="black" stroke-width="4.62" x1="15074" y1="667" x2="16313" y2= "3579" />
   <line fill="none" stroke="black" stroke-width="4.62" x1="14836" y1="829" x2="16282" y2= "3576" />
   <line fill="none" stroke="black" stroke-width="4.62" x1="18419" y1="963" x2="16787" y2= "3482" />
   <line fill="none" stroke="black" stroke-width="4.62" x1="18729" y1="1107" x2="16829" y2= "3482" />
   <line fill="none" stroke="black" stroke-width="4.62" x1="14573" y1="1036" x2="16266" y2= "3576" />
   <line fill="none" stroke="black" stroke-width="4.62" x1="16245" y1="3571" x2="14263" y2= "1216" />
   <polyline fill="none" stroke="black" stroke-width="4.62" points="18801,1314 16818,3524 18945,1500 "/>
   <path fill="#DBE501" stroke="black" stroke-width="7.62" d="M16232 3560c166,36 217,5 313,6 57,1 167,-123 291,-78 409,242 41,3334 -309,4257 -265,-201 -993,-3775 -294,-4185z"/>
   <path fill="none" stroke="black" stroke-width="7.62" d="M16543 3584c-405,1216 -172,2634 -14,4146"/>
  </g>
  <g id="ake_di" onclick="parent.replacechar('ake_di')" onmousemove="parent.showtooltip('ake_di','Ak&#232;ne aplati')" onmouseout="parent.hidetooltip('ake_di')" cursor="pointer" >
    <metadata id="CorelCorpID_2">
     <odm name="Name" value="ake_aplati" type="0"/>
    </metadata>
   <g>
    <path fill="#DBE501" stroke="black" stroke-width="7.62" d="M21010 1827c13,-90 137,-190 292,-121 -31,-164 -262,-99 -333,58 -26,-78 -263,-285 -330,-76 118,-54 304,51 299,144 -58,34 -160,26 -160,204 -103,40 -347,-135 -593,724 -44,153 -225,1106 -246,1264 -21,157 -100,640 -58,1023 42,383 388,718 572,792 184,73 362,100 509,105 147,5 535,-26 734,-225 199,-199 294,-414 315,-650 21,-236 -26,-970 -26,-1106 0,-136 -167,-1088 -231,-1253 -106,-273 -202,-659 -590,-669 -22,-123 -41,-177 -153,-212z"/>
    <line fill="none" stroke="black" stroke-width="7.62" x1="20970" y1="2212" x2="20974" y2= "5938" />
    <path fill="none" stroke="black" stroke-width="7.62" d="M20868 5937c0,0 -365,-353 -290,-1746 75,-1393 228,-1878 311,-2067"/>
    <path fill="none" stroke="black" stroke-width="7.62" d="M20739 5920c0,0 -286,-115 -421,-708 -134,-594 -91,-1354 -49,-1553 42,-199 287,-1609 561,-1584"/>
    <path fill="none" stroke="black" stroke-width="7.62" d="M20776 2039c45,21 126,88 196,168 56,-60 120,-138 193,-169"/>
    <path fill="none" stroke="black" stroke-width="7.62" d="M21077 5937c0,0 365,-353 290,-1746 -75,-1393 -228,-1878 -311,-2067"/>
    <path fill="none" stroke="black" stroke-width="7.62" d="M21206 5920c0,0 286,-115 421,-708 134,-594 91,-1354 49,-1553 -42,-199 -287,-1615 -561,-1590"/>
   </g>
   <g>
    <path fill="#DBE501" stroke="black" stroke-width="7.62" d="M22048 7118c0,0 -530,-621 -1072,-634 -542,-12 -1042,539 -1078,618 326,21 2151,15 2151,15z"/>
    <path fill="white" stroke="black" stroke-width="7.62" d="M21743 6993c0,0 -391,-366 -720,-369 -329,-2 -765,303 -791,358 229,15 1510,11 1510,11z"/>
    <path fill="#DBE501" stroke="black" stroke-width="7.62" d="M22045 7113c0,0 -534,619 -1076,632 -542,12 -1038,-556 -1074,-635 326,-21 2151,3 2151,3z"/>
    <path fill="white" stroke="black" stroke-width="7.62" d="M21736 7236c0,0 -391,366 -720,369 -329,2 -765,-303 -791,-358 229,-15 1510,-11 1510,-11z"/>
   </g>
  </g>
  <g id="ake_bicon" onclick="parent.replacechar('ake_bicon')" onmousemove="parent.showtooltip('ake_bicon','Ak&#232;ne biconvexe')" onmouseout="parent.hidetooltip('ake_bicon')" cursor="pointer" >
    <metadata id="CorelCorpID_3">
     <odm name="Name" value="ake_bicon" type="0"/>
    </metadata>
   <line fill="none" stroke="black" stroke-width="7.62" x1="2231" y1="9373" x2="2209" y2= "10306" />
   <path fill="none" stroke="black" stroke-width="7.62" d="M2235 9386c199,-66 384,-779 384,-996"/>
   <path fill="none" stroke="black" stroke-width="7.62" d="M2224 9386c-199,-66 -483,-770 -483,-987"/>
   <path fill="#DBE501" stroke="black" stroke-width="7.62" d="M2203 10206c-2308,1265 -1201,4634 36,5691 1596,-1963 1738,-4932 -36,-5691z"/>
   <ellipse fill="#DBE501" stroke="black" stroke-width="7.62" cx="2261" cy="17037" rx="1201" ry="334"/>
  </g>
  <g id="ake_trigone" onclick="parent.replacechar('ake_trigone')" onmousemove="parent.showtooltip('ake_trigone','Ak&#232;ne trigone')" onmouseout="parent.hidetooltip('ake_trigone')" cursor="pointer" >
    <metadata id="CorelCorpID_4">
     <odm name="Name" value="ake_ trigone" type="0"/>
    </metadata>
   <polygon fill="#DBE501" stroke="black" stroke-width="7.62" points="5723,17119 6656,16263 7668,17119 "/>
   <path fill="none" stroke="black" stroke-width="7.62" d="M6826 9247c-178,-59 -648,-851 -616,-1086"/>
   <path fill="none" stroke="black" stroke-width="7.62" d="M6837 9243c178,-59 413,-932 413,-1127"/>
   <path fill="#DBE501" stroke="black" stroke-width="7.62" d="M6773 10153c-1148,1389 -2259,3317 -211,5702 122,-31 114,-14 251,-89 399,-1521 836,-4347 -40,-5613z"/>
   <path fill="none" stroke="black" stroke-width="7.62" d="M6659 15579c-364,-1378 -647,-3855 97,-5418 166,-926 16,-980 16,-2130"/>
   <polyline fill="none" stroke="black" stroke-width="7.62" points="6648,15659 6590,15814 6784,15737 6648,15659 "/>
  </g>
  <g id="ake_trigone_2" onclick="parent.replacechar('ake_trigone_2')" onmousemove="parent.showtooltip('ake_trigone_2','Ak&#232;ne trigone')" onmouseout="parent.hidetooltip('ake_trigone_2')" cursor="pointer" >
   <path fill="#DBE501" stroke="black" stroke-width="7.62" stroke-linejoin="bevel" d="M10444 11123c-2630,143 -340,3974 230,4634l129 5c301,-359 2429,-5040 -139,-4629l-220 -10z"/>
   <path fill="none" stroke="black" stroke-width="7.62" stroke-linejoin="bevel" d="M10511 11209c-861,1138 -143,2989 234,4495"/>
   <path fill="none" stroke="black" stroke-width="7.62" stroke-linejoin="bevel" d="M10932 8388c-96,105 -110,191 -158,330 -105,335 -134,521 -153,607"/>
   <path fill="none" stroke="black" stroke-width="7.62" stroke-linejoin="bevel" d="M10635 8230c-57,110 -48,191 -48,316 0,-48 0,110 0,741"/>
   <path fill="none" stroke="black" stroke-width="7.62" stroke-linejoin="bevel" d="M10066 8144c81,100 110,182 124,311 14,177 77,263 153,416 316,622 277,545 234,344"/>
   <path fill="none" stroke="black" stroke-width="7.62" stroke-linejoin="bevel" d="M10893 11773c268,889 81,1984 33,2687"/>
   <path fill="none" stroke="black" stroke-width="7.62" stroke-linejoin="bevel" d="M10028 11702c-488,507 -53,1846 105,2386"/>
   <path fill="#DBE501" stroke="black" stroke-width="7.62" stroke-linejoin="bevel" d="M10597 9253c43,545 172,1320 359,1712 -115,5 -277,153 -339,158 -67,5 -215,-124 -330,-96 105,-282 268,-851 292,-1765m19 -10l0 0 0 0z"/>
  </g>
  <g id="ake_trigone_3" onclick="parent.replacechar('ake_trigone_3')" onmousemove="parent.showtooltip('ake_trigone_3','Ak&#232;ne trigone')" onmouseout="parent.hidetooltip('ake_trigone_3')" cursor="pointer" >
   <path fill="#DBE501" stroke="black" stroke-width="7.62" stroke-linejoin="bevel" d="M15187 11748c-3032,-168 -1748,1955 -609,2781 530,391 575,877 698,1195l101 -28c-73,-290 296,-1223 938,-1636 631,-402 1513,-2284 -871,-2301l-257 -11z"/>
   <path fill="none" stroke="black" stroke-width="7.62" stroke-linejoin="bevel" d="M15249 11804c-1234,385 -447,2022 -89,2586 251,564 45,771 184,1279"/>
   <line fill="none" stroke="black" stroke-width="7.62" stroke-linejoin="bevel" x1="15399" y1="9352" x2="15288" y2= "11709" />
   <path fill="none" stroke="black" stroke-width="7.62" stroke-linejoin="bevel" d="M15935 8363c-112,123 -128,223 -179,385 -84,246 -235,419 -307,665"/>
   <path fill="none" stroke="black" stroke-width="7.62" stroke-linejoin="bevel" d="M15494 8151c-73,128 -61,223 -61,369 0,341 0,525 0,871"/>
   <path fill="none" stroke="black" stroke-width="7.62" stroke-linejoin="bevel" d="M14980 8118c95,117 128,218 145,369 17,201 89,307 179,486 145,285 112,330 145,441"/>
   <path fill="#DBE501" stroke="black" stroke-width="7.62" stroke-linejoin="bevel" d="M15081 11709c128,-151 195,-363 257,-452 67,95 112,262 257,463 -212,34 -313,28 -514,-11z"/>
   <path fill="#DBE501" stroke="black" stroke-width="7.62" stroke-linejoin="bevel" d="M15176 12613l631 -229 625 0m-1257 229z"/>
   <path fill="#DBE501" stroke="black" stroke-width="7.62" stroke-linejoin="bevel" d="M14897 12898l910 0 681 -173m-1592 173z"/>
   <path fill="#DBE501" stroke="black" stroke-width="7.62" stroke-linejoin="bevel" d="M15008 13468l631 -168 732 50m-1363 117z"/>
   <path fill="#DBE501" stroke="black" stroke-width="7.62" stroke-linejoin="bevel" d="M13757 12155l514 0 223 402m-737 -402z"/>
   <path fill="#DBE501" stroke="black" stroke-width="7.62" stroke-linejoin="bevel" d="M13528 12496l514 117 341 397m-854 -514z"/>
   <line fill="none" stroke="black" stroke-width="7.62" stroke-linejoin="bevel" x1="13757" y1="13127" x2="14383" y2= "13524" />
  </g>
  <g id="ake_boule" onclick="parent.replacechar('ake_boule')" onmousemove="parent.showtooltip('ake_boule','Ak&#232;ne sph&#233;rique')" onmouseout="parent.hidetooltip('ake_boule')" cursor="pointer" >
   <path fill="#DBE501" stroke="black" stroke-width="7.62" stroke-linejoin="bevel" d="M20639 15430c-336,0 -1002,28 -912,-274 -280,280 -990,-375 -649,-683 -448,117 -772,-1035 -291,-1091 -436,-173 -50,-1432 386,-1253 -246,-319 666,-884 834,-655 17,-185 436,-145 632,-145 498,0 1438,179 1287,571 291,-274 778,543 453,688 369,11 459,772 112,795 341,151 118,1153 -246,1018 263,325 -453,1097 -772,811 50,330 -537,218 -834,218z"/>
   <path fill="#948177" d="M21405 13007c-168,0 -297,-67 -297,-157 0,-78 129,-151 297,-151 168,0 308,73 308,151 0,90 -140,157 -308,157z"/>
   <path fill="#948177" d="M20046 13292c-123,0 -235,-62 -235,-134 0,-78 112,-134 235,-134 134,0 246,56 246,134 0,73 -112,134 -246,134z"/>
   <path fill="#948177" d="M21014 12067c-140,0 -257,-67 -257,-151 0,-84 118,-151 257,-151 145,0 269,67 269,151 0,84 -123,151 -269,151z"/>
   <path fill="#948177" d="M19850 11983c-162,0 -302,-73 -302,-157 0,-84 140,-157 302,-157 168,0 308,73 308,157 0,84 -140,157 -308,157z"/>
   <path fill="#948177" d="M19329 12688c-134,0 -246,-62 -246,-134 0,-73 112,-134 246,-134 123,0 235,62 235,134 0,73 -112,134 -235,134z"/>
   <path fill="#948177" d="M20404 12688c-140,0 -257,-78 -257,-157 0,-84 117,-157 257,-157 140,0 263,73 263,157 0,78 -123,157 -263,157z"/>
   <path fill="#948177" d="M20023 15033c-168,0 -302,-67 -302,-157 0,-78 134,-151 302,-151 162,0 297,73 297,151 0,90 -134,157 -297,157z"/>
   <path fill="#948177" d="M21831 12487c-145,0 -263,-73 -263,-151 0,-90 117,-157 263,-157 140,0 263,67 263,157 0,78 -123,151 -263,151z"/>
   <path fill="#948177" d="M21053 14826c168,0 302,67 302,151 0,84 -134,151 -302,151 -168,0 -297,-67 -297,-151 0,-84 129,-151 297,-151z"/>
   <path fill="#948177" d="M21618 14456c134,0 241,56 241,129 0,73 -106,134 -241,134 -134,0 -241,-62 -241,-134 0,-73 106,-129 241,-129z"/>
   <path fill="#948177" d="M20202 13735c145,0 263,67 263,157 0,78 -117,151 -263,151 -146,0 -269,-73 -269,-151 0,-90 123,-157 269,-157z"/>
   <path fill="#948177" d="M22060 13130c162,0 302,73 302,157 0,84 -140,151 -302,151 -168,0 -308,-67 -308,-151 0,-84 140,-157 308,-157z"/>
   <path fill="#948177" d="M21702 13802c129,0 241,62 241,140 0,73 -112,129 -241,129 -134,0 -241,-56 -241,-129 0,-78 106,-140 241,-140z"/>
   <path fill="#948177" d="M21002 13360c140,0 257,73 257,151 0,84 -117,157 -257,157 -140,0 -263,-73 -263,-157 0,-78 123,-151 263,-151z"/>
   <path fill="#948177" d="M19397 14115c168,0 297,67 297,151 0,84 -129,151 -297,151 -168,0 -302,-67 -302,-151 0,-84 134,-151 302,-151z"/>
   <path fill="#948177" d="M20751 14216c129,0 241,56 241,134 0,73 -112,134 -241,134 -134,0 -241,-62 -241,-134 0,-78 106,-134 241,-134z"/>
   <path fill="#948177" d="M19240 13371c145,0 263,73 263,157 0,84 -117,151 -263,151 -146,0 -263,-67 -263,-151 0,-84 118,-157 263,-157z"/>
   <path fill="#B09959" d="M20661 15615c-224,0 -403,-62 -403,-145 0,-84 179,-145 403,-145 224,0 414,62 414,145 0,84 -190,145 -414,145z"/>
   <line fill="none" stroke="#B09959" stroke-width="26.46" stroke-linejoin="bevel" x1="20684" y1="15581" x2="21008" y2= "15978" />
   <line fill="none" stroke="#040404" stroke-width="13.23" stroke-linejoin="bevel" x1="20952" y1="10825" x2="20779" y2= "11340" />
  </g>
 </g>
<image xlink:href="tick.gif" id="imgtick" x="-10000" y="-10000" width="1500" height="1500"/>
<rect id="recttooltip" x="-10000" y="-10000" width="5500" height="600" fill-opacity="0.85" pointer-events="none"/>
<text id="textboxid" x="-10000" y="-10000" pointer-events="none"> </text>
</a></svg>
