<?xml version="1.0" encoding="UTF-8"?>
<!DOCTYPE svg PUBLIC "-//W3C//DTD SVG 1.1//EN" "http://www.w3.org/Graphics/SVG/1.1/DTD/svg11.dtd">
<!-- Creator: CorelDRAW X5 -->
<svg xmlns="http://www.w3.org/2000/svg" xml:space="preserve" width="240mm" height="180mm" shape-rendering="geometricPrecision" text-rendering="geometricPrecision" image-rendering="optimizeQuality" fill-rule="evenodd" clip-rule="evenodd"
viewBox="0 0 24000 18000"
 xmlns:xlink="http://www.w3.org/1999/xlink">
<a>
 <defs>
    <linearGradient id="id0" gradientUnits="userSpaceOnUse" x1="2634.2" y1="6966.85" x2="2634.2" y2="7426.63">
     <stop offset="0" stop-color="#CC9933"/>
     <stop offset="1" stop-color="#434242"/>
    </linearGradient>
    <linearGradient id="id1" gradientUnits="userSpaceOnUse" x1="2224.65" y1="6948.23" x2="2224.65" y2="7408.01">
     <stop offset="0" stop-color="#CC9933"/>
     <stop offset="1" stop-color="#434242"/>
    </linearGradient>
 </defs>
 <g id="Layer_x0020_1">
  <metadata id="CorelCorpID_0Corel-Layer"/>
  <g id="Fru_pod" onclick="parent.replacechar('Fru_pod')" onmousemove="parent.showtooltip('Fru_pod','Gousse')" onmouseout="parent.hidetooltip('Fru_pod')" cursor="pointer" >
   <g>
    <path id="gousse_ext" fill="#00C800" d="M2207 5029c168,-1712 1172,-3046 2098,-4521 -130,660 274,594 181,936 -408,1513 -1596,2540 -2082,4103 -91,10 -163,-27 -275,-10 53,-150 72,-329 78,-508z"/>
    <path id="gousse_ext1" fill="none" fill-rule="nonzero" stroke="black" stroke-width="7.62" d="M2207 5029c168,-1712 1172,-3046 2098,-4521 -130,660 274,594 181,936 -408,1513 -1596,2540 -2082,4103 -91,10 -163,-27 -275,-10 53,-150 72,-329 78,-508z"/>
   </g>
   <path id="gousse_int" fill="none" stroke="black" stroke-width="5.64" d="M2266 4946c159,-1617 1126,-2905 2000,-4298 -123,532 268,451 180,775 -386,1429 -1626,2610 -2086,4086 -86,9 -81,-26 -186,-9 50,-142 87,-384 92,-553z"/>
   <line id="gousse_traiIII" fill="none" stroke="black" stroke-width="4.89" x1="2510" y1="4034" x2="2874" y2= "4173" />
   <line id="gousse_traitII" fill="none" stroke="black" stroke-width="5.64" x1="2442" y1="4330" x2="2735" y2= "4416" />
   <line id="gousse_trait" fill="none" stroke="black" stroke-width="5.64" x1="2395" y1="4625" x2="2627" y2= "4686" />
   <path id="gousse_sepales" fill="#FFAA00" stroke="black" stroke-width="7.62" d="M2016 5977c0,-60 73,-94 85,-165 24,-137 -7,-321 -18,-454 -82,-232 -260,-467 -87,-590 5,184 155,237 155,489 0,14 170,-400 300,-460 -22,187 -58,251 -10,459 45,191 138,-198 372,-310 14,-7 0,359 -309,460 -17,87 -106,303 -259,429 -57,92 44,180 11,180 -19,0 -97,-48 -116,-68 -48,-48 -97,39 -126,29z"/>
  </g>
  <g id="Fru_corc" onclick="parent.replacechar('Fru_corc')" onmousemove="parent.showtooltip('Fru_corc','Silique')" onmouseout="parent.hidetooltip('Fru_corc')" cursor="pointer" >
   <path fill="#00C800" stroke="#040404" stroke-width="7.62" stroke-linejoin="bevel" d="M5929 5618c-26,-60 111,-577 150,-594 -5,-68 154,-463 190,-455 1,-68 181,-466 225,-499 14,-103 216,-521 252,-507 15,-114 184,-440 232,-457 6,-73 210,-448 259,-465 1,-78 229,-483 270,-469 0,-58 171,-347 220,-374 17,-72 209,-375 240,-362 5,-62 144,-223 176,-221 121,52 79,-72 318,199 6,53 -122,398 -154,405 2,42 -165,405 -187,413 2,42 -192,476 -227,462 -6,67 -207,464 -242,450 -7,78 -287,614 -318,601 -7,78 -226,504 -260,480 11,58 -243,466 -272,437 -7,78 -234,477 -273,443 -1,78 -166,300 -186,288 -40,164 -323,412 -354,294 -6,-48 -52,58 -77,103l-113 221 -36 -71c51,-106 192,-287 169,-326z"/>
   <path fill="none" stroke="#040404" stroke-width="7.62" stroke-linejoin="bevel" d="M7958 1657c-98,164 91,405 168,244"/>
   <path fill="none" stroke="#040404" stroke-width="7.62" stroke-linejoin="bevel" d="M6101 5199c-77,171 26,379 112,219"/>
   <path fill="none" stroke="#040404" stroke-width="7.62" stroke-linejoin="bevel" d="M6286 4801c-78,177 42,433 147,248"/>
   <path fill="none" stroke="#040404" stroke-width="7.62" stroke-linejoin="bevel" d="M6512 4292c-82,166 86,473 179,292"/>
   <path fill="none" stroke="#040404" stroke-width="7.62" stroke-linejoin="bevel" d="M6745 3830c-115,241 81,530 180,350"/>
   <path fill="none" stroke="#040404" stroke-width="7.62" stroke-linejoin="bevel" d="M6999 3355c-92,160 92,526 181,334"/>
   <path fill="none" stroke="#040404" stroke-width="7.62" stroke-linejoin="bevel" d="M7267 2849c-92,155 103,511 202,331"/>
   <path fill="none" stroke="#040404" stroke-width="7.62" stroke-linejoin="bevel" d="M7514 2399c-92,165 92,526 187,330"/>
   <path fill="none" stroke="#040404" stroke-width="7.62" stroke-linejoin="bevel" d="M7759 1980c-92,160 89,499 178,313"/>
   <path fill="none" stroke="#040404" stroke-width="7.62" stroke-linejoin="bevel" d="M8142 1405c-83,113 53,360 143,169"/>
   <path fill="none" stroke="#040404" stroke-width="7.62" stroke-linejoin="bevel" d="M8174 1895c-21,66 105,61 118,-37"/>
   <path fill="none" stroke="#040404" stroke-width="7.62" stroke-linejoin="bevel" d="M8304 1586c-27,71 104,66 118,-37"/>
   <path fill="none" stroke="#040404" stroke-width="7.62" stroke-linejoin="bevel" d="M6233 5435c-16,61 90,55 97,-39"/>
   <path fill="none" stroke="#040404" stroke-width="7.62" stroke-linejoin="bevel" d="M6404 5140c-27,76 105,61 119,-47"/>
   <path fill="none" stroke="#040404" stroke-width="7.62" stroke-linejoin="bevel" d="M6659 4723c-21,61 104,66 114,-53"/>
   <path fill="none" stroke="#040404" stroke-width="7.62" stroke-linejoin="bevel" d="M6957 4230c-27,76 94,60 109,-48"/>
   <path fill="none" stroke="#040404" stroke-width="7.62" stroke-linejoin="bevel" d="M7188 3778c-32,71 95,55 114,-53"/>
   <path fill="none" stroke="#040404" stroke-width="7.62" stroke-linejoin="bevel" d="M7509 3199c-27,71 99,66 114,-53"/>
   <path fill="none" stroke="#040404" stroke-width="7.62" stroke-linejoin="bevel" d="M7734 2763c-21,66 105,61 119,-47"/>
   <path fill="none" stroke="#040404" stroke-width="7.62" stroke-linejoin="bevel" d="M7966 2311c-22,71 99,66 108,-43"/>
   <path fill="#4EB148" stroke="#040404" stroke-width="7.62" stroke-linejoin="bevel" d="M8116 1272c-21,-2 -50,158 0,126m0 -126l0 0 0 0z"/>
   <path fill="none" stroke="#040404" stroke-width="7.62" stroke-linejoin="bevel" d="M6074 5081c-26,-2 -50,163 -11,130"/>
   <path fill="none" stroke="#040404" stroke-width="7.62" stroke-linejoin="bevel" d="M6262 4658c-21,-2 -50,163 -5,120"/>
   <path fill="none" stroke="#040404" stroke-width="7.62" stroke-linejoin="bevel" d="M6487 4159c-21,-2 -50,153 -5,125"/>
   <path fill="none" stroke="#040404" stroke-width="7.62" stroke-linejoin="bevel" d="M6724 3640c-21,3 -45,158 -7,141"/>
   <path fill="none" stroke="#040404" stroke-width="7.62" stroke-linejoin="bevel" d="M6983 3170c-16,-1 -40,164 -6,130"/>
   <path fill="none" stroke="#040404" stroke-width="7.62" stroke-linejoin="bevel" d="M7238 2689c-10,-6 -50,153 -5,125"/>
   <path fill="none" stroke="#040404" stroke-width="7.62" stroke-linejoin="bevel" d="M7491 2240c-26,-2 -50,158 -5,125"/>
   <path fill="none" stroke="#040404" stroke-width="7.62" stroke-linejoin="bevel" d="M7716 1861c-16,-1 -44,153 -5,120"/>
   <path fill="none" stroke="#040404" stroke-width="7.62" stroke-linejoin="bevel" d="M7952 1478c-21,3 -45,164 -6,130"/>
   <line fill="none" stroke="#040404" stroke-width="7.62" stroke-linejoin="bevel" x1="8068" y1="1467" x2="7997" y2= "1566" />
   <line fill="none" stroke="#040404" stroke-width="7.62" stroke-linejoin="bevel" x1="7902" y1="1699" x2="7779" y2= "1924" />
   <line fill="none" stroke="#040404" stroke-width="7.62" stroke-linejoin="bevel" x1="7694" y1="2063" x2="7547" y2= "2313" />
   <line fill="none" stroke="#040404" stroke-width="7.62" stroke-linejoin="bevel" x1="7454" y1="2430" x2="7326" y2= "2707" />
   <line fill="none" stroke="#040404" stroke-width="7.62" stroke-linejoin="bevel" x1="7209" y1="2917" x2="7036" y2= "3290" />
   <line fill="none" stroke="#040404" stroke-width="7.62" stroke-linejoin="bevel" x1="6947" y1="3413" x2="6788" y2= "3750" />
   <line fill="none" stroke="#040404" stroke-width="7.62" stroke-linejoin="bevel" x1="6679" y1="3929" x2="6541" y2= "4200" />
   <line fill="none" stroke="#040404" stroke-width="7.62" stroke-linejoin="bevel" x1="6447" y1="4380" x2="6323" y2= "4731" />
   <line fill="none" stroke="#040404" stroke-width="7.62" stroke-linejoin="bevel" x1="8280" y1="1631" x2="8182" y2= "1853" />
   <line fill="none" stroke="#040404" stroke-width="7.62" stroke-linejoin="bevel" x1="8148" y1="1955" x2="7982" y2= "2239" />
   <line fill="none" stroke="#040404" stroke-width="7.62" stroke-linejoin="bevel" x1="7945" y1="2372" x2="7751" y2= "2686" />
   <line fill="none" stroke="#040404" stroke-width="7.62" stroke-linejoin="bevel" x1="7694" y1="2801" x2="7521" y2= "3126" />
   <line fill="none" stroke="#040404" stroke-width="7.62" stroke-linejoin="bevel" x1="7465" y1="3232" x2="7212" y2= "3681" />
   <line fill="none" stroke="#040404" stroke-width="7.62" stroke-linejoin="bevel" x1="7143" y1="3817" x2="6977" y2= "4179" />
   <line fill="none" stroke="#040404" stroke-width="7.62" stroke-linejoin="bevel" x1="6896" y1="4267" x2="6734" y2= "4577" />
   <line fill="none" stroke="#040404" stroke-width="7.62" stroke-linejoin="bevel" x1="6680" y1="4661" x2="6459" y2= "5046" />
   <line fill="none" stroke="#040404" stroke-width="7.62" stroke-linejoin="bevel" x1="6247" y1="4897" x2="6119" y2= "5169" />
   <line fill="none" stroke="#040404" stroke-width="7.62" stroke-linejoin="bevel" x1="6062" y1="5284" x2="5987" y2= "5555" />
   <line fill="none" stroke="#040404" stroke-width="7.62" stroke-linejoin="bevel" x1="6392" y1="5155" x2="6250" y2= "5415" />
   <line fill="none" stroke="#040404" stroke-width="7.62" stroke-linejoin="bevel" x1="6189" y1="5515" x2="6046" y2= "5602" />
   <line fill="none" stroke="#040404" stroke-width="7.62" stroke-linejoin="bevel" x1="8365" y1="1424" x2="8330" y2= "1526" />
   <line fill="none" stroke="#040404" stroke-width="7.62" stroke-linejoin="bevel" x1="8243" y1="1320" x2="8166" y2= "1360" />
   <path fill="#4EB148" stroke="#040404" stroke-width="7.62" stroke-linejoin="bevel" d="M8121 1215c18,-93 85,-202 86,-338 123,157 19,268 68,314 69,53 79,54 134,85 76,27 159,-149 341,-139 -119,105 -244,288 -296,284 -43,-51 -210,-175 -333,-206z"/>
   <path fill="#4EB148" stroke="#040404" stroke-width="7.62" stroke-linejoin="bevel" d="M8329 1228c33,-18 130,-120 268,-134 -90,71 -150,170 -166,169 -42,-4 -139,-22 -102,-35z"/>
  </g>
  <g id="Fru_sil" onclick="parent.replacechar('Fru_sil')" onmousemove="parent.showtooltip('Fru_sil','Silique')" onmouseout="parent.hidetooltip('Fru_sil')" cursor="pointer" >
   <path fill="#00C800" stroke="black" stroke-width="7.62" d="M13079 604c-338,272 -277,361 -691,605 -734,1254 -1636,2844 -2068,4268 -113,287 257,318 288,235 320,-317 1590,-2624 2224,-4269 -68,-237 192,-436 246,-839z"/>
   <path fill="#EB8748" stroke="black" stroke-width="7.62" d="M10568 5781c-15,86 -97,74 -132,83 -58,22 -65,101 -147,151 -44,-25 -47,-3 -91,-52 0,-124 75,-177 32,-240 -45,-34 -21,-134 49,-123 88,233 267,121 289,182z"/>
   <path fill="none" stroke="black" stroke-width="7.62" d="M10366 5620c312,-1257 1334,-2921 2115,-4364"/>
   <path fill="none" stroke="black" stroke-width="7.62" d="M10517 5685c810,-1011 1565,-2785 2225,-4305"/>
   <path fill="none" stroke="black" stroke-width="7.62" d="M10457 5625c570,-1211 1350,-2650 2142,-4289"/>
   <path fill="none" stroke="black" stroke-width="7.62" d="M12526 1222c134,-101 264,-350 527,-575"/>
   <path fill="none" stroke="black" stroke-width="7.62" d="M12758 1325c34,-164 203,-342 294,-676"/>
   <path fill="none" stroke="black" stroke-width="7.62" d="M12646 1277c34,-164 219,-280 393,-606"/>
  </g>
  <g id="Fru_biv" onclick="parent.replacechar('Fru_biv')" onmousemove="parent.showtooltip('Fru_biv','Capsule bivalve')" onmouseout="parent.hidetooltip('Fru_biv')" cursor="pointer" >
    <metadata id="CorelCorpID_1">
     <odm name="Name" value="capsule_2" type="0"/>
    </metadata>
   <path fill="#FFFA89" stroke="black" stroke-width="7.62" stroke-linejoin="bevel" d="M14481 2131c608,485 1367,2527 1187,3597l-1052 -913 -135 -2684z"/>
   <path fill="#B2A71C" stroke="black" stroke-width="7.62" stroke-linejoin="bevel" d="M15632 5706c-1360,-43 -1488,-1479 -1232,-3260l81 -321c287,2103 287,2803 1149,3545l2 36z"/>
   <path fill="#FFFA89" stroke="black" stroke-width="7.62" stroke-linejoin="bevel" d="M16680 1880c-666,752 -1096,3206 -994,3839l1095 -1165 -101 -2675z"/>
   <path fill="#AAAA00" stroke="black" stroke-width="7.62" stroke-linejoin="bevel" d="M15748 5706c1351,-393 1398,-1856 1041,-3550l-103 -263c-155,2107 -144,2825 -1001,3826l63 -13z"/>
   <polygon fill="#00C800" stroke="black" stroke-width="7.62" stroke-linejoin="bevel" points="15632,5681 15748,5681 15748,6015 15661,5991 "/>
   <path fill="red" stroke="black" stroke-width="7.62" stroke-linejoin="bevel" d="M15201 4747c-142,-38 -242,-134 -219,-219 23,-88 153,-127 295,-92 146,35 245,130 222,222 -23,84 -153,123 -299,88z"/>
   <path fill="red" stroke="black" stroke-width="7.62" stroke-linejoin="bevel" d="M14945 3622c-142,-38 -242,-134 -219,-219 23,-88 153,-127 295,-92 146,34 245,130 222,222 -23,84 -153,123 -299,88z"/>
   <path fill="red" stroke="black" stroke-width="7.62" stroke-linejoin="bevel" d="M16194 4291c-139,46 -276,22 -303,-62 -30,-86 58,-190 195,-240 141,-52 277,-27 308,63 27,83 -60,187 -201,239z"/>
   <path fill="red" stroke="black" stroke-width="7.62" stroke-linejoin="bevel" d="M16057 5000c-103,46 -209,37 -236,-24 -29,-64 30,-150 131,-198 103,-50 209,-41 240,24 27,61 -32,147 -135,197z"/>
   <path fill="red" stroke="black" stroke-width="7.62" stroke-linejoin="bevel" d="M16328 3572c-103,46 -209,37 -236,-24 -29,-64 30,-150 131,-198 103,-50 209,-41 240,24 27,61 -32,147 -135,197z"/>
   <path fill="red" stroke="black" stroke-width="7.62" stroke-linejoin="bevel" d="M15366 5222c-103,-45 -169,-128 -142,-190 27,-64 130,-79 234,-38 107,42 172,126 144,193 -27,62 -130,76 -237,34z"/>
   <path fill="red" stroke="black" stroke-width="7.62" stroke-linejoin="bevel" d="M15105 4167c-104,-42 -172,-124 -146,-186 26,-65 128,-82 233,-43 108,40 175,122 149,190 -25,62 -128,79 -236,40z"/>
  </g>
  <g id="Fru_triv" onclick="parent.replacechar('Fru_triv')" onmousemove="parent.showtooltip('Fru_triv','Capsule trivalve')" onmouseout="parent.hidetooltip('Fru_triv')" cursor="pointer" >
    <metadata id="CorelCorpID_2">
     <odm name="Name" value="3_valves" type="0"/>
    </metadata>
   <path fill="#FFF59D" stroke="black" stroke-width="7.62" stroke-linejoin="bevel" d="M22198 3143c-1176,297 -1723,1946 -1502,2650l1543 -859 -41 -1791z"/>
   <path fill="#FFF59D" stroke="black" stroke-width="7.62" stroke-linejoin="bevel" d="M18982 3313c1197,155 1964,1708 1713,2451l-1455 -745 -258 -1706z"/>
   <path fill="#AAAA00" stroke="black" stroke-width="7.62" stroke-linejoin="bevel" d="M20654 5810c-1979,-33 -2172,-1029 -1796,-2263l121 -234c415,1468 415,1803 1675,2317l0 180z"/>
   <path fill="#AAAA00" stroke="black" stroke-width="7.62" stroke-linejoin="bevel" d="M20702 5816c1964,-268 2172,-1295 1649,-2474l-144 -212c-248,1555 -283,1889 -1506,2686z"/>
   <path fill="#AAAA00" stroke="black" stroke-width="7.62" stroke-linejoin="bevel" d="M20684 5834c-1826,-784 -658,-2082 -11,-2458 717,359 1865,1685 11,2458z"/>
   <polygon fill="#00C800" stroke="black" stroke-width="7.62" stroke-linejoin="bevel" points="20620,5782 20775,5782 20766,6015 20640,5999 "/>
   <path fill="red" stroke="black" stroke-width="7.62" stroke-linejoin="bevel" d="M21814 3740c-110,36 -217,17 -238,-48 -23,-68 46,-150 154,-189 111,-41 218,-21 242,49 22,65 -47,147 -158,188z"/>
   <path fill="red" stroke="black" stroke-width="7.62" stroke-linejoin="bevel" d="M21814 4267c-81,36 -164,29 -185,-19 -23,-50 23,-118 103,-155 81,-39 164,-33 189,19 21,48 -25,116 -106,155z"/>
   <path fill="red" stroke="black" stroke-width="7.62" stroke-linejoin="bevel" d="M19495 3986c-112,-30 -190,-106 -172,-172 18,-69 121,-100 232,-72 115,27 193,103 175,175 -18,66 -121,97 -235,69z"/>
   <path fill="red" stroke="black" stroke-width="7.62" stroke-linejoin="bevel" d="M19503 4481c-81,-35 -133,-101 -112,-149 21,-51 102,-62 184,-30 84,33 135,99 114,152 -21,48 -102,60 -186,27z"/>
  </g>
  <g id="Fru_cap" onclick="parent.replacechar('Fru_cap')" onmousemove="parent.showtooltip('Fru_cap','Capsule')" onmouseout="parent.hidetooltip('Fru_cap')" cursor="pointer">
    <metadata id="CorelCorpID_3">
     <odm name="Name" value="capsule indehis" type="0"/>
    </metadata>
   <rect fill="#4EB148" stroke="#0A0A0A" stroke-width="7.62" x="2317" y="10884" width="196" height="604"/>
   <path fill="url(#id0)" stroke="#0A0A0A" stroke-width="7.62" d="M2802 7427l-325 -13c0,0 -12,-292 70,-348 81,-56 100,-99 98,-92l60 62c25,26 100,56 100,158 0,102 -2,233 -2,233z"/>
   <path fill="url(#id1)" stroke="#0A0A0A" stroke-width="7.62" d="M2392 7408l-325 -13c0,0 -12,-292 70,-348 81,-56 100,-99 98,-92l60 62c25,26 100,56 100,158 0,102 -2,233 -2,233z"/>
   <path fill="#AAAA00" stroke="#0A0A0A" stroke-width="7.62" d="M3100 7728c142,409 399,805 378,1649 -26,1065 -471,1580 -1053,1580 -581,0 -1014,-515 -1053,-1580 -31,-844 241,-1234 403,-1651 39,-101 97,-267 131,-338 -1,-27 -3,-242 65,-301 67,-58 89,-135 89,-135l55 106c23,38 93,66 91,215l7 111c1,0 1,0 2,0 1,-55 9,-201 84,-247 89,-55 129,-176 129,-176l90 129c38,38 94,56 117,161 14,62 17,99 18,119 3,0 3,2 5,2 -1,-37 -2,-212 65,-269 66,-58 94,-132 94,-132l77 125c75,125 73,142 78,285 50,147 68,214 127,348z"/>
  </g>
  <g id="Fru_malva" onclick="parent.replacechar('Fru_malva')" onmousemove="parent.showtooltip('Fru_malva','Capsule &#224; m&#233;ricarpes')" onmouseout="parent.hidetooltip('Fru_malva')" cursor="pointer" >
   <polygon fill="#AB7B2E" fill-rule="nonzero" stroke="#2C2C2B" stroke-width="7.62" points="6896,11488 6872,10856 7272,10856 7250,11488 "/>
   <path fill="#FAC177" fill-rule="nonzero" stroke="#2C2C2B" stroke-width="7.62" d="M5231 9074c76,10 139,15 163,-10 112,-15 512,-512 983,-217 -141,-356 463,-636 529,-819 68,-190 27,-54 39,-78 17,20 -5,39 49,63 54,22 185,117 405,124 -27,0 644,112 507,754 110,-90 458,-59 722,-32 156,34 217,27 278,-12 -10,37 -24,61 -24,102 24,1161 -463,1058 -451,1105 119,310 -112,544 -154,685 -15,51 -15,151 -7,207 -44,-27 -102,-46 -139,-41 -59,0 -161,17 -246,37 -105,39 -510,249 -871,-49 -295,312 -824,127 -858,134 -100,-22 -176,-17 -234,-15l-122 20c15,-90 -2,-176 -5,-180 7,-163 -337,-427 -127,-773 -100,-41 -239,-288 -244,-519 -15,-120 -46,-288 -93,-366 -49,-76 -68,-78 -100,-119z"/>
   <path fill="none" fill-rule="nonzero" d="M5819 9406c-183,-105 -344,-202 -571,-317"/>
   <path fill="none" fill-rule="nonzero" d="M8898 8859c-42,34 -81,80 -144,132 -137,98 -310,363 -385,502"/>
   <path fill="#CFB51D" fill-rule="nonzero" stroke="#2C2C2B" stroke-width="7.62" d="M7426 8277c10,332 27,707 37,1056l100 2c-27,-310 -59,-619 -81,-934 -7,-56 -20,-93 -56,-124z"/>
   <path fill="#CFB51D" fill-rule="nonzero" stroke="#2C2C2B" stroke-width="7.62" d="M7596 8993l-2 -224c49,-2 224,78 239,141l-237 83z"/>
   <path fill="#CFB51D" fill-rule="nonzero" stroke="#2C2C2B" stroke-width="7.62" d="M7226 8250l-12 1124 83 -19 -32 -956c0,-56 -10,-117 -39,-149z"/>
   <path fill="#CFB51D" fill-rule="nonzero" stroke="#2C2C2B" stroke-width="7.62" d="M8342 9735c39,-95 56,-171 -5,-297 -190,-300 -224,-334 -341,-451 -100,-66 -112,-83 -188,-80 -68,15 -132,34 -200,68l0 141 734 619z"/>
   <path fill="#CFB51D" fill-rule="nonzero" stroke="#2C2C2B" stroke-width="7.62" d="M6301 8886c83,-61 276,-85 441,-144 188,-20 288,-68 422,-56l-59 763 -363 -129 -441 -434z"/>
   <path fill="none" fill-rule="nonzero" d="M8240 9293c-15,-20 -166,-178 -227,-202"/>
   <path fill="#CFB51D" fill-rule="nonzero" stroke="#2C2C2B" stroke-width="7.62" d="M5855 9676c-51,2 -90,-83 -88,-134 27,-129 34,-102 156,-297 51,-88 117,-176 183,-256 102,-85 129,-134 266,-88 110,-5 161,-12 217,29l132 54c17,-205 37,-405 51,-612 5,-54 20,-90 54,-124 -7,295 -20,622 -32,941l32 -7 0 -2 -971 497z"/>
   <path fill="none" fill-rule="nonzero" d="M5931 9242c32,-39 56,-63 102,-102"/>
   <path fill="#CFB51D" fill-rule="nonzero" stroke="#2C2C2B" stroke-width="7.62" d="M6409 10505c-188,29 -312,-207 -344,-302 -85,-105 -173,-112 -190,-190 -20,-83 -56,-249 -42,-317 5,-46 20,-132 73,-180 88,-122 132,-176 239,-229 95,-105 195,-193 412,-198 44,-195 88,-415 124,-585 15,-83 44,-117 63,-122 -24,271 -66,527 -102,810l66 -34c7,-158 34,-393 63,-539 12,-71 20,-90 66,-115 -32,280 -39,563 -46,834l-383 1168z"/>
   <path fill="none" fill-rule="nonzero" d="M6065 10208c-20,-102 10,-217 24,-327"/>
   <path fill="none" fill-rule="nonzero" d="M6643 9189c-85,44 -163,83 -246,134"/>
   <path fill="#D8BE10" fill-rule="nonzero" stroke="#2C2C2B" stroke-width="7.62" stroke-linejoin="bevel" d="M6826 9171l12 -112 20 -678c2,-49 12,-110 42,-139 10,229 7,722 10,1083l-2 2 -80 -156z"/>
   <path fill="#CFB51D" fill-rule="nonzero" stroke="#2C2C2B" stroke-width="7.62" d="M6901 9418l29 -1017c0,-59 7,-122 39,-154l5 1192 -80 -17 7 -5z"/>
   <path fill="#CFB51D" fill-rule="nonzero" stroke="#2C2C2B" stroke-width="7.62" d="M7045 8228l15 1083 -85 -15 32 -929c2,-51 12,-110 39,-139z"/>
   <path fill="#CFB51D" fill-rule="nonzero" stroke="#2C2C2B" stroke-width="7.62" d="M7096 8228c-27,102 -17,107 -20,154l-10 1019 90 -12 -32 -1002c-2,-59 -7,-80 -29,-158z"/>
   <path fill="#CFB51D" fill-rule="nonzero" stroke="#2C2C2B" stroke-width="7.62" d="M7174 8235c-20,59 -22,88 -24,137l-10 941 88 -20 -32 -927c0,-51 -5,-85 -22,-132z"/>
   <path fill="#CFB51D" fill-rule="nonzero" stroke="#2C2C2B" stroke-width="7.62" d="M7294 8259l-12 1083 81 -15 -32 -927c0,-51 -7,-112 -37,-141z"/>
   <path fill="#CFB51D" fill-rule="nonzero" stroke="#2C2C2B" stroke-width="7.62" d="M7374 8264c-12,307 -10,724 -12,1085l83 -17 -34 -927c0,-51 -7,-110 -37,-141z"/>
   <path fill="#CFB51D" fill-rule="nonzero" stroke="#2C2C2B" stroke-width="7.62" d="M6404 10510c-237,-629 144,-1027 388,-1188 27,-193 46,-475 61,-568 10,-80 29,-66 46,-98 -12,232 15,458 7,688l7 61 73 -71c-5,-195 29,-449 49,-566 12,-120 15,-76 39,-110 22,232 2,441 24,688 7,458 22,1039 34,1339 0,10 -34,54 -68,51 -80,-2 -156,-17 -302,-112 -32,-22 -76,-59 -78,-59 -15,-17 -93,5 -120,0 -80,-7 -98,-12 -161,-56z"/>
   <path fill="none" fill-rule="nonzero" d="M6918 9406c-63,39 -78,66 -183,229"/>
   <path fill="none" fill-rule="nonzero" d="M6677 10561c-15,-51 -71,-137 -76,-237"/>
   <path fill="#CFB51D" fill-rule="nonzero" stroke="#2C2C2B" stroke-width="7.62" d="M7818 10418c81,7 302,-222 395,-398 49,2 149,-161 127,-300 -10,-71 -2,-46 -46,-137 -83,-146 -427,-393 -522,-434 -32,-10 -85,-15 -151,-27 -29,-202 -20,-456 -59,-624 -12,-78 -51,-105 -71,-107 37,263 10,544 44,829 -5,5 7,12 -2,15 -10,-161 -42,-461 -68,-610 -12,-68 -22,-90 -63,-112 24,273 29,602 29,846l388 1058z"/>
   <path fill="none" fill-rule="nonzero" d="M8213 10022c0,-173 -98,-271 -149,-356"/>
   <path fill="none" fill-rule="nonzero" d="M7533 9235c71,24 163,56 246,129"/>
   <path fill="#CFB51D" fill-rule="nonzero" stroke="#2C2C2B" stroke-width="7.62" d="M7811 10459c195,-456 5,-831 -290,-1046 -15,-12 -54,-17 -66,-24 -12,-27 -12,-27 -24,-59 -27,-193 -24,-461 -37,-556 -10,-76 -41,-100 -56,-129 -10,224 -49,458 -42,685 0,20 0,39 2,51 20,15 29,27 37,34 -27,-24 -56,-61 -85,-88 5,-195 -20,-429 -27,-549 -5,-71 -27,-76 -54,-115 -20,234 -34,439 -56,685 -32,441 -2,1046 24,1324 0,20 110,63 144,61 127,-49 198,-137 219,-161 32,-22 37,-24 37,-24 7,-15 110,-5 137,-10 78,-7 107,-49 137,-81z"/>
   <path fill="none" fill-rule="nonzero" d="M7340 9423c56,54 68,85 120,200"/>
   <path fill="none" fill-rule="nonzero" d="M7548 10547c22,-56 56,-146 61,-239"/>
   <path fill="none" fill-rule="nonzero" d="M6999 8494c-12,-102 -59,-424 -59,-549"/>
   <path fill="none" fill-rule="nonzero" d="M8272 10944c-156,-212 -293,-417 -446,-495"/>
   <path fill="none" fill-rule="nonzero" d="M6260 10471c-180,134 -102,222 -458,561"/>
  </g>
  <g id="Fru_1graine" onclick="parent.replacechar('Fru_1graine')" onmousemove="parent.showtooltip('Fru_1graine','Capsule &#224; 1 graine')" onmouseout="parent.hidetooltip('Fru_1graine')" cursor="pointer">
    <metadata id="CorelCorpID_4">
     <odm name="Name" value="capsule 1graine" type="0"/>
    </metadata>
   <rect fill="#4EB148" stroke="black" stroke-width="7.62" x="11612" y="10926" width="248" height="562"/>
   <g id="_457787624">
    <ellipse fill="#AAAA00" stroke="black" stroke-width="7.62" stroke-linejoin="bevel" cx="11747" cy="9329" rx="1272" ry="1612"/>
    <g>
     <line fill="none" stroke="black" stroke-width="7.62" x1="10916" y1="9513" x2="10927" y2= "9615" />
     <line fill="none" stroke="black" stroke-width="7.62" x1="10947" y1="9734" x2="10969" y2= "9829" />
     <line fill="none" stroke="black" stroke-width="7.62" x1="11022" y1="9976" x2="11064" y2= "10072" />
     <line fill="none" stroke="black" stroke-width="7.62" x1="11137" y1="10201" x2="11193" y2= "10284" />
     <line fill="none" stroke="black" stroke-width="7.62" x1="11294" y1="10399" x2="11369" y2= "10471" />
     <line fill="none" stroke="black" stroke-width="7.62" x1="11500" y1="10552" x2="11592" y2= "10588" />
     <path fill="none" stroke="black" stroke-width="7.62" d="M11740 10603c0,0 96,-6 108,-16"/>
     <path fill="none" stroke="black" stroke-width="7.62" d="M11989 10545c0,0 88,-47 92,-53"/>
     <line fill="none" stroke="black" stroke-width="7.62" x1="12195" y1="10407" x2="12271" y2= "10326" />
     <line fill="none" stroke="black" stroke-width="7.62" x1="12408" y1="10116" x2="12360" y2= "10208" />
     <line fill="none" stroke="black" stroke-width="7.62" x1="12499" y1="9879" x2="12467" y2= "9977" />
     <line fill="none" stroke="black" stroke-width="7.62" x1="12548" y1="9627" x2="12534" y2= "9734" />
     <line fill="none" stroke="black" stroke-width="7.62" x1="12561" y1="9373" x2="12560" y2= "9478" />
     <path fill="none" stroke="black" stroke-width="7.62" d="M12542 9119c0,0 9,86 11,98"/>
     <path fill="none" stroke="black" stroke-width="7.62" d="M12494 8873c0,0 23,77 23,91"/>
     <path fill="none" stroke="black" stroke-width="7.62" d="M12404 8632c0,0 39,80 41,98"/>
     <path fill="none" stroke="black" stroke-width="7.62" d="M12266 8414c0,0 61,77 68,102"/>
     <path fill="none" stroke="black" stroke-width="7.62" d="M12080 8248c57,32 82,61 82,61"/>
     <line fill="none" stroke="black" stroke-width="7.62" x1="11948" y1="8186" x2="11833" y2= "8157" />
     <line fill="none" stroke="black" stroke-width="7.62" x1="11681" y1="8152" x2="11577" y2= "8179" />
     <line fill="none" stroke="black" stroke-width="7.62" x1="11443" y1="8241" x2="11357" y2= "8305" />
     <line fill="none" stroke="black" stroke-width="7.62" x1="11248" y1="8414" x2="11187" y2= "8493" />
     <line fill="none" stroke="black" stroke-width="7.62" x1="11110" y1="8625" x2="11062" y2= "8718" />
     <line fill="none" stroke="black" stroke-width="7.62" x1="11008" y1="8855" x2="10978" y2= "8953" />
     <line fill="none" stroke="black" stroke-width="7.62" x1="10944" y1="9096" x2="10926" y2= "9205" />
     <line fill="none" stroke="black" stroke-width="7.62" x1="10920" y1="9296" x2="10915" y2= "9388" />
    </g>
   </g>
  </g>
  <g id="Fru_circ" onclick="parent.replacechar('Fru_circ')" onmousemove="parent.showtooltip('Fru_circ','Capsule &#224; d&#233;hiscence horizontale')" onmouseout="parent.hidetooltip('Fru_circ')" cursor="pointer">
   <path fill="#AAAA1E" stroke="black" stroke-width="7.62" stroke-linejoin="bevel" d="M14629 9385c-382,728 513,1852 1333,1922 907,-209 1509,-1096 1211,-2011l-2544 89z"/>
   <path fill="#FFFA89" stroke="black" stroke-width="7.62" stroke-linejoin="bevel" d="M15926 9661c-700,0 -1303,-215 -1303,-315 0,-100 619,-273 1319,-273 700,0 1213,84 1213,184 0,100 -530,404 -1230,404z"/>
   <path fill="#AAAA00" stroke="black" stroke-width="7.62" stroke-linejoin="bevel" d="M14645 8894c81,-496 393,-594 692,-1121 363,14 1013,-153 1428,229l-2120 893z"/>
   <path fill="#4EB148" stroke="black" stroke-width="7.62" stroke-linejoin="bevel" d="M15954 11469c-22,-8 -8,-67 -36,-103 -89,-36 -271,-47 -343,-195 25,-64 56,100 371,67 106,-22 117,-120 248,-159 50,36 -103,112 -61,159 53,59 170,-100 201,-28 -153,134 -201,162 -237,170 -39,153 -126,103 -142,89z"/>
   <path fill="#FFFA89" stroke="black" stroke-width="7.62" stroke-linejoin="bevel" d="M15884 8847c-536,195 -1166,360 -1238,148 -70,-204 427,-602 962,-798 536,-192 1102,-391 1199,-123 98,268 -388,577 -923,773z"/>
   <path fill="#E7B78B" stroke="black" stroke-width="7.62" stroke-linejoin="bevel" d="M15694 9653c-84,-123 -39,-1010 229,-1049 276,61 371,795 293,1035 -201,56 -340,78 -522,14z"/>
   <path fill="red" stroke="black" stroke-width="7.62" stroke-linejoin="bevel" d="M16299 9477c-128,-36 -220,-120 -201,-192 22,-73 145,-95 273,-56 131,36 223,117 201,193 -19,73 -142,92 -273,56z"/>
   <path fill="red" stroke="black" stroke-width="7.62" stroke-linejoin="bevel" d="M16260 9106c-103,-28 -176,-98 -159,-159 17,-64 112,-92 215,-67 106,25 179,95 162,162 -17,61 -112,89 -218,64z"/>
   <path fill="red" stroke="black" stroke-width="7.62" stroke-linejoin="bevel" d="M15744 9664c-87,3 -206,-56 -67,-109 84,-31 170,-22 187,22 17,45 -31,84 -120,86z"/>
   <path fill="red" stroke="black" stroke-width="7.62" stroke-linejoin="bevel" d="M15697 9436c-120,87 -248,109 -296,39 -45,-70 20,-195 137,-282 120,-86 248,-112 296,-36 45,67 -20,190 -137,279z"/>
   <path fill="red" stroke="black" stroke-width="7.62" stroke-linejoin="bevel" d="M15753 8710c-139,-53 -268,-39 -296,39 -25,78 70,184 204,237 139,53 271,45 296,-42 25,-75 -67,-179 -204,-234z"/>
  </g>
  <g id="Fru_baie_cyx" onclick="parent.replacechar('Fru_baie_cyx')" onmousemove="parent.showtooltip('Fru_baie_cyx','Baie enferm&#233;e dans le calice')" onmouseout="parent.hidetooltip('Fru_baie_cyx')" cursor="pointer">
   <path fill="#FFFA89" stroke="black" stroke-width="7.62" d="M20104 7651c-1184,118 -1144,1002 -1007,1433 382,752 650,1270 912,2396 9,38 12,-287 15,-448 7,-404 45,382 59,456 45,-235 104,-499 162,-617 469,-957 1476,-1601 1221,-2555 0,-488 -1022,-645 -1361,-665z"/>
   <ellipse fill="#AAAA00" stroke="black" stroke-width="7.62" cx="20227" cy="8129" rx="560" ry="493"/>
   <path fill="#00C800" stroke="black" stroke-width="7.62" d="M19912 7342c-1353,0 -1333,1070 -1301,1286 90,603 863,1448 1382,2720l-382 -2316c-72,-620 7,-1323 588,-1323 656,0 901,237 1261,568 -110,-622 -828,-965 -1548,-935z"/>
   <path fill="none" stroke="black" stroke-width="7.62" d="M18814 7820c257,-258 905,-331 1297,-221 -2013,824 -276,1964 -276,3212"/>
   <path fill="none" stroke="black" stroke-width="7.62" d="M20215 7588c1909,147 28,2409 -92,3381"/>
   <path fill="none" stroke="black" stroke-width="7.62" d="M20035 10907c0,-667 198,-1474 198,-2124"/>
   <path fill="#00C800" stroke="black" stroke-width="7.62" d="M20090 6927c29,-6 56,1 147,-26 38,59 -66,511 -26,695 0,7 -88,7 -88,7 -42,0 -18,-505 -33,-676z"/>
   <path fill="none" stroke="black" stroke-width="7.62" d="M20226 7588c293,-117 400,-96 651,-30"/>
  </g>
  <g id="Fru_mure" onclick="parent.replacechar('Fru_mure')" onmousemove="parent.showtooltip('Fru_mure','M&#251;re')" onmouseout="parent.hidetooltip('Fru_mure')" cursor="pointer">
    <metadata id="CorelCorpID_5">
     <odm name="Name" value="mure" type="0"/>
    </metadata>
   <rect fill="#E7E78D" stroke="#2A2A29" stroke-width="7.62" x="3175" y="15564" width="152" height="905"/>
   <path fill="#BDD57B" stroke="#2A2A29" stroke-width="7.62" d="M3522 15568c0,0 126,299 63,661 -63,362 -47,-504 -252,-566 -205,-63 189,-94 189,-94z"/>
   <path fill="#BDD57B" stroke="#2A2A29" stroke-width="7.62" d="M2995 15569c0,0 -126,299 -63,661 63,362 47,-382 252,-566 205,-184 -189,-135 -189,-94z"/>
   <path fill="#E51A4B" stroke="#FDFCFC" stroke-width="7.62" d="M3793 15020c0,0 -58,-103 -1,-209 57,-106 69,-124 159,-165 90,-41 130,-36 188,-28 57,8 111,74 143,119 32,45 34,67 53,133 18,66 -15,176 -48,217 -33,41 -74,99 -115,107 -41,8 -38,33 -191,-9 -152,-42 -173,-115 -188,-165z"/>
   <ellipse fill="#FEFEFE" cx="3953" cy="14877" rx="41" ry="64"/>
   <path fill="#E51A4B" stroke="#FDFCFC" stroke-width="7.62" d="M3612 15500c0,0 -58,-103 -1,-209 57,-106 69,-124 159,-165 90,-41 124,-17 183,3 59,20 91,49 123,69 32,21 30,52 34,120 11,223 -173,335 -350,318 -171,-16 -132,-87 -147,-136z"/>
   <ellipse fill="#FEFEFE" cx="3766" cy="15330" rx="41" ry="64"/>
   <path fill="#E51A4B" stroke="#FDFCFC" stroke-width="7.62" d="M2102 14652c0,0 -58,-103 -1,-209 57,-106 69,-124 159,-165 90,-41 130,-36 188,-28 57,8 111,74 143,119 32,45 34,67 53,133 18,66 -15,176 -48,217 -33,41 -74,99 -115,107 -41,8 -38,33 -191,-9 -152,-42 -173,-115 -188,-165z"/>
   <ellipse fill="#FEFEFE" cx="2231" cy="14519" rx="41" ry="64"/>
   <path fill="#E51A4B" stroke="#FDFCFC" stroke-width="7.62" d="M2309 15468c0,0 -58,-103 -1,-209 57,-106 69,-124 159,-165 90,-41 130,-36 188,-28 57,8 111,74 143,119 32,45 34,67 53,133 18,66 -15,176 -48,217 -33,41 -74,99 -115,107 -41,8 -38,33 -191,-9 -152,-42 -173,-115 -188,-165z"/>
   <ellipse fill="#FEFEFE" cx="2432" cy="15389" rx="41" ry="64"/>
   <path fill="#E51A4B" stroke="#FDFCFC" stroke-width="7.62" d="M2191 14187c0,0 -58,-103 -1,-209 57,-106 69,-124 159,-165 90,-41 130,-36 188,-28 57,8 111,74 143,119 32,45 34,67 53,133 18,66 -15,176 -48,217 -33,41 -74,99 -115,107 -41,8 -38,33 -191,-9 -152,-42 -173,-115 -188,-165z"/>
   <ellipse fill="#FEFEFE" cx="2320" cy="14055" rx="41" ry="64"/>
   <path fill="#E51A4B" stroke="#FDFCFC" stroke-width="7.62" d="M3364 13727c0,0 -58,-103 -1,-209 57,-106 69,-124 159,-165 90,-41 130,-36 188,-28 57,8 111,74 143,119 32,45 34,67 53,133 18,66 -15,176 -48,217 -33,41 -74,99 -115,107 -41,8 -38,33 -191,-9 -152,-42 -173,-115 -188,-165z"/>
   <ellipse fill="#FEFEFE" stroke="#2A2A29" stroke-width="7.62" cx="3493" cy="13594" rx="41" ry="64"/>
   <path fill="#E51A4B" stroke="#FDFCFC" stroke-width="7.62" d="M3683 14075c0,0 -58,-103 -1,-209 57,-106 69,-124 159,-165 90,-41 130,-36 188,-28 57,8 111,74 143,119 32,45 34,67 53,133 18,66 -15,176 -48,217 -33,41 -74,99 -115,107 -41,8 -38,33 -191,-9 -152,-42 -173,-115 -188,-165z"/>
   <ellipse fill="#FEFEFE" stroke="#2A2A29" stroke-width="7.62" cx="3797" cy="13977" rx="41" ry="64"/>
   <path fill="#E51A4B" stroke="#FDFCFC" stroke-width="7.62" d="M2762 13607c0,0 -58,-103 -1,-209 57,-106 69,-124 159,-165 90,-41 130,-36 188,-28 57,8 111,74 143,119 32,45 34,67 53,133 18,66 -15,176 -48,217 -33,41 -74,99 -115,107 -41,8 -38,33 -191,-9 -152,-42 -173,-115 -188,-165z"/>
   <ellipse fill="#FEFEFE" cx="2891" cy="13474" rx="41" ry="64"/>
   <path fill="#E51A4B" stroke="#FDFCFC" stroke-width="7.62" d="M3062 13646c0,0 -58,-103 -1,-209 57,-106 69,-124 159,-165 90,-41 130,-36 188,-28 57,8 111,74 143,119 32,45 34,67 53,133 18,66 -15,176 -48,217 -33,41 -74,99 -115,107 -41,8 -38,33 -191,-9 -152,-42 -173,-115 -188,-165z"/>
   <ellipse fill="#FEFEFE" cx="3191" cy="13513" rx="41" ry="64"/>
   <path fill="#E51A4B" stroke="#FDFCFC" stroke-width="7.62" d="M2374 13773c0,0 -58,-103 -1,-209 57,-106 69,-124 159,-165 90,-41 130,-36 188,-28 57,8 111,74 143,119 32,45 34,67 53,133 18,66 -15,176 -48,217 -33,41 -74,99 -115,107 -41,8 -38,33 -191,-9 -152,-42 -173,-115 -188,-165z"/>
   <ellipse fill="#FEFEFE" cx="2503" cy="13640" rx="41" ry="64"/>
   <path fill="#E51A4B" stroke="#FDFCFC" stroke-width="7.62" d="M3773 14584c0,0 -70,-146 -25,-271 45,-124 69,-87 159,-128 90,-41 155,-11 212,-3 57,8 111,74 143,119 32,45 34,67 53,133 18,66 -15,176 -48,217 -33,41 -74,99 -115,107 -41,8 -174,14 -271,-22 -97,-36 -92,-103 -108,-152z"/>
   <ellipse fill="#FEFEFE" cx="3926" cy="14445" rx="41" ry="64"/>
   <path fill="#E51A4B" stroke="#FDFCFC" stroke-width="7.62" d="M2165 15116c0,0 -36,-94 -1,-209 35,-115 69,-124 159,-165 90,-41 130,-36 188,-28 57,8 111,74 143,119 32,45 34,67 53,133 18,66 -15,176 -48,217 -33,41 -74,99 -115,107 -41,8 -38,33 -191,-9 -152,-42 -157,-85 -188,-165z"/>
   <ellipse fill="#FEFEFE" cx="2276" cy="14997" rx="41" ry="64"/>
   <path fill="#E51A4B" stroke="#FDFCFC" stroke-width="7.62" d="M3329 15059c0,0 -15,-159 -1,-265 14,-106 -42,-130 153,-171 195,-41 137,-23 194,-15 57,8 111,24 143,70 32,45 71,141 65,237 -6,97 -40,182 -73,223 -33,41 -86,56 -127,64 -41,8 29,2 -123,-40 -152,-42 -216,-54 -231,-103z"/>
   <ellipse fill="#FEFEFE" cx="3502" cy="14864" rx="41" ry="64"/>
   <path fill="#E51A4B" stroke="#FDFCFC" stroke-width="7.62" d="M3182 15582c0,0 -76,-254 -19,-360 57,-106 57,-99 146,-140 90,-41 143,1 200,9 57,8 138,68 162,100 24,33 28,87 22,170 -6,83 -31,133 -36,161 -5,29 -56,117 -96,125 -41,8 -54,11 -215,0 -161,-11 -145,-63 -164,-66z"/>
   <ellipse fill="#FEFEFE" cx="3336" cy="15347" rx="41" ry="64"/>
   <path fill="#E51A4B" stroke="#FDFCFC" stroke-width="7.62" d="M2708 15467c0,0 -58,-103 -1,-209 57,-106 69,-124 159,-165 90,-41 130,-36 188,-28 57,8 111,74 143,119 32,45 34,67 53,133 18,66 -15,176 -48,217 -33,41 -74,99 -115,107 -41,8 -38,33 -191,-9 -152,-42 -173,-115 -188,-165z"/>
   <ellipse fill="#FEFEFE" cx="2838" cy="15335" rx="41" ry="64"/>
   <path fill="#E51A4B" stroke="#FDFCFC" stroke-width="7.62" d="M2370 15069c0,0 -36,-103 -1,-209 35,-106 69,-124 159,-165 90,-41 130,-36 188,-28 57,8 111,74 143,119 32,45 34,67 53,133 18,66 -15,176 -48,217 -33,41 -74,99 -115,107 -41,8 -38,33 -191,-9 -152,-42 -173,-115 -188,-165z"/>
   <ellipse fill="#FEFEFE" cx="2499" cy="14936" rx="41" ry="64"/>
   <path fill="#E51A4B" stroke="#FDFCFC" stroke-width="7.62" d="M2581 14575c0,0 -58,-103 -1,-209 57,-106 69,-124 159,-165 90,-41 130,-36 188,-28 57,8 111,74 143,119 32,45 34,67 53,133 18,66 -15,176 -48,217 -33,41 -74,99 -115,107 -41,8 -38,33 -191,-9 -152,-42 -173,-115 -188,-165z"/>
   <ellipse fill="#FEFEFE" cx="2711" cy="14443" rx="41" ry="64"/>
   <path fill="#E51A4B" stroke="#FDFCFC" stroke-width="7.62" d="M3362 14555c0,0 -90,-190 -38,-295 53,-106 2,-99 85,-140 83,-41 219,26 271,34 53,8 103,74 132,119 29,45 32,67 48,133 17,66 -14,176 -44,217 -30,41 -68,99 -106,107 -38,8 -35,33 -176,-9 -140,-42 -159,-115 -173,-165z"/>
   <ellipse fill="#FEFEFE" cx="3500" cy="14423" rx="37" ry="64"/>
   <path fill="#E51A4B" stroke="#FDFCFC" stroke-width="7.62" d="M2941 14555c0,0 -39,-220 18,-326 57,-106 26,-50 116,-91 90,-41 155,7 212,16 57,8 93,49 125,94 32,45 28,116 34,163 6,47 22,102 -17,174 -39,72 -68,136 -109,144 -41,8 -38,33 -191,-9 -152,-42 -173,-115 -188,-165z"/>
   <ellipse fill="#FEFEFE" cx="3070" cy="14422" rx="41" ry="64"/>
   <path fill="#E51A4B" stroke="#FDFCFC" stroke-width="7.62" d="M2851 15018c0,0 -52,-126 -18,-235 34,-109 93,-122 183,-134 90,-12 134,-1 185,5 51,6 108,29 140,74 32,45 25,85 28,151 3,66 15,170 -17,211 -33,41 -80,80 -121,88 -41,8 -38,33 -191,-9 -152,-42 -174,-102 -190,-151z"/>
   <ellipse fill="#FEFEFE" stroke="#FCFAF8" stroke-width="7.62" cx="2982" cy="14872" rx="41" ry="64"/>
   <path fill="#E51A4B" stroke="#FDFCFC" stroke-width="7.62" d="M2553 14101c0,0 -58,-103 -1,-209 57,-106 69,-124 159,-165 90,-41 130,-36 188,-28 57,8 111,74 143,119 32,45 34,67 53,133 18,66 -15,176 -48,217 -33,41 -74,99 -115,107 -41,8 -38,33 -191,-9 -152,-42 -173,-115 -188,-165z"/>
   <ellipse fill="#FEFEFE" cx="2682" cy="13968" rx="41" ry="64"/>
   <path fill="#E51A4B" stroke="#FDFCFC" stroke-width="7.62" d="M3396 14064c0,0 -58,-103 -1,-209 57,-106 69,-124 159,-165 90,-41 130,-36 188,-28 57,8 111,74 143,119 32,45 34,67 53,133 18,66 -15,176 -48,217 -33,41 -74,99 -115,107 -41,8 -38,33 -191,-9 -152,-42 -173,-115 -188,-165z"/>
   <ellipse fill="#FEFEFE" cx="3525" cy="13931" rx="41" ry="64"/>
   <path fill="#E51A4B" stroke="#FDFCFC" stroke-width="7.62" d="M2953 14034c0,0 -58,-103 -1,-209 57,-106 69,-124 159,-165 90,-41 130,-36 188,-28 57,8 111,74 143,119 32,45 34,67 53,133 18,66 -15,176 -48,217 -33,41 -74,99 -115,107 -41,8 -38,33 -191,-9 -152,-42 -173,-115 -188,-165z"/>
   <ellipse fill="#FEFEFE" cx="3083" cy="13901" rx="41" ry="64"/>
  </g>
  <g id="Fru_baie" onclick="parent.replacechar('Fru_baie')" onmousemove="parent.showtooltip('Fru_baie','Baie')" onmouseout="parent.hidetooltip('Fru_baie')" cursor="pointer">
    <metadata id="CorelCorpID_6">
     <odm name="Name" value="berry" type="0"/>
    </metadata>
   <path fill="#AAAA00" fill-rule="nonzero" stroke="black" stroke-width="7.62" stroke-linejoin="bevel" d="M6455 15134c0,-714 536,-1446 1246,-1446 714,0 1273,711 1273,1425 0,714 -2519,735 -2519,21z"/>
   <path fill="#FFFA89" fill-rule="nonzero" stroke="black" stroke-width="7.62" stroke-linejoin="bevel" d="M7687 16468c-710,0 -1234,-566 -1234,-1278 0,-637 493,-1043 1247,-1043 714,0 1276,326 1276,1043 0,712 -572,1278 -1289,1278z"/>
   <path fill="#00C800" fill-rule="nonzero" stroke="black" stroke-width="7.62" stroke-linejoin="bevel" d="M7636 13282c4,171 24,619 7,717 -16,100 -51,71 -106,109 -104,71 370,67 308,0 -24,-31 -95,-18 -113,-104 -20,-89 -2,-572 -7,-741l-89 20z"/>
   <path fill="red" fill-rule="nonzero" stroke="black" stroke-width="7.62" stroke-linejoin="bevel" d="M6979 14547c162,-238 646,380 615,424 -43,71 -817,-154 -615,-424z"/>
   <path fill="red" fill-rule="nonzero" stroke="black" stroke-width="7.62" stroke-linejoin="bevel" d="M6999 15889c-195,-242 528,-521 603,-437 3,5 -409,693 -603,437z"/>
   <path fill="red" fill-rule="nonzero" stroke="black" stroke-width="7.62" stroke-linejoin="bevel" d="M6824 15195c5,-360 728,-21 728,18 -4,50 -739,339 -728,-18z"/>
   <path fill="red" fill-rule="nonzero" stroke="black" stroke-width="7.62" stroke-linejoin="bevel" d="M8426 14589c-170,-237 -647,379 -615,424 54,74 809,-157 615,-424z"/>
   <path fill="red" fill-rule="nonzero" stroke="black" stroke-width="7.62" stroke-linejoin="bevel" d="M8426 15914c209,-229 -487,-549 -581,-464 -17,23 378,700 581,464z"/>
   <path fill="red" fill-rule="nonzero" stroke="black" stroke-width="7.62" stroke-linejoin="bevel" d="M8581 15237c0,-358 -725,-21 -725,13 0,33 731,354 725,-13z"/>
  </g>
  <g id="Fru_sec" onclick="parent.replacechar('Fru_sec')" onmousemove="parent.showtooltip('Fru_sec','Fruit sec')" onmouseout="parent.hidetooltip('Fru_sec')" cursor="pointer">
    <metadata id="CorelCorpID_7">
     <odm name="Name" value="fruit sec" type="0"/>
    </metadata>
   <path fill="#AAAA1E" stroke="black" stroke-width="7.62" stroke-linejoin="bevel" d="M13745 14068c-268,115 -385,269 -384,454 1,331 154,614 35,1277 -181,1007 -1442,806 -1398,-137 21,-448 22,-478 71,-804 48,-320 63,-355 67,-589 6,-402 -142,-809 -230,-982 146,40 312,231 360,320 257,476 190,455 300,706 40,91 149,116 320,-1 388,-266 756,-274 860,-245z"/>
   <g id="_432416480">
    <path fill="none" stroke="black" stroke-width="7.62" d="M12296 14994c0,0 -177,730 113,1151"/>
    <path fill="none" stroke="black" stroke-width="7.62" d="M12818 15366c18,63 36,698 -54,802"/>
    <path fill="none" stroke="black" stroke-width="7.62" d="M13139 14917c0,0 100,272 100,458 0,193 -50,634 -204,789"/>
   </g>
  </g>
  <g id="Fru_ake" onclick="parent.replacechar('Fru_ake')" onmousemove="parent.showtooltip('Fru_ake','Ak&#232;ne')" onmouseout="parent.hidetooltip('Fru_ake')" cursor="pointer">
   <path fill="#B2A71C" stroke="black" stroke-width="7.62" d="M16298 13024c137,29 179,4 257,5 47,1 138,-102 239,-64 337,199 34,2744 -254,3503 -218,-166 -817,-3107 -242,-3444z"/>
   <path fill="none" stroke="black" stroke-width="7.62" d="M16553 13044c-333,1001 -142,2168 -12,3412"/>
   <path fill="#DBE501" stroke="black" stroke-width="7.62" d="M16427 12869c0,0 233,-26 285,-4 28,-2 52,20 79,89 -165,-7 -157,64 -237,64 -162,11 -191,18 -256,-6 -7,-2 107,-136 130,-144z"/>
   <path fill="none" stroke="black" stroke-width="7.62" d="M16487 12930c-63,0 -107,91 -183,76"/>
   <path fill="none" stroke="black" stroke-width="7.62" d="M16489 12929c34,16 35,77 80,88"/>
   <path fill="none" stroke="black" stroke-width="7.62" d="M16489 12934c60,-45 168,2 230,-67"/>
   <path fill="none" stroke="black" stroke-width="7.62" d="M16482 12929c-10,-23 -49,-24 -55,-54"/>
  </g>
  <g id="Fru_grain" onclick="parent.replacechar('Fru_grain')" onmousemove="parent.showtooltip('Fru_grain','Fruit des gramin&#233;es')" onmouseout="parent.hidetooltip('Fru_grain')" cursor="pointer">
   <g id="caryopsis">
    <path fill="#B2A71C" stroke="black" stroke-width="7.62" stroke-linejoin="bevel" d="M19790 12688c371,157 572,373 702,753 184,596 176,955 -110,1121 -78,86 -182,98 -294,61 -394,-94 -592,-392 -684,-788 -104,-441 -14,-788 292,-1121l94 -25z"/>
    <path fill="none" stroke="black" stroke-width="7.62" stroke-linejoin="bevel" d="M19756 12705c420,718 431,1104 486,1772"/>
    <path fill="#D5843C" stroke="#221D1A" stroke-width="7.62" stroke-linejoin="bevel" d="M20199 14642c96,0 171,-51 171,-84 0,-37 -75,-47 -171,-47 -96,0 -174,31 -174,67 0,35 78,65 174,65z"/>
   </g>
   <g id="epi">
    <path fill="#FFF500" stroke="#2A2A29" stroke-width="7.62" d="M22220 10673c223,0 216,-379 0,-379 -209,0 -215,379 0,379z"/>
    <path fill="#FFF500" stroke="#2A2A29" stroke-width="7.62" d="M21820 11132c272,0 265,-402 0,-402 -254,0 -260,402 0,402z"/>
    <path fill="#FFF500" stroke="#2A2A29" stroke-width="7.62" d="M22279 11678c313,0 306,-429 0,-429 -294,0 -302,429 0,429z"/>
    <path fill="#DA2500" stroke="#2A2A29" stroke-width="7.62" d="M21779 12283c313,0 306,-429 0,-429 -294,0 -302,429 0,429z"/>
    <path fill="#DA2500" stroke="#2A2A29" stroke-width="7.62" d="M22333 12981c379,0 370,-492 0,-492 -354,0 -363,492 0,492z"/>
    <path fill="#DA2500" stroke="#2A2A29" stroke-width="7.62" d="M21716 13696c377,0 367,-534 0,-534 -355,0 -365,534 0,534z"/>
    <path fill="#DA2500" stroke="#2A2A29" stroke-width="7.62" d="M22357 14584c398,0 388,-510 0,-510 -372,0 -383,510 0,510z"/>
    <path fill="#009341" stroke="#2A2A29" stroke-width="7.62" d="M22068 10646c-27,42 -18,45 -24,66 0,0 75,30 128,30 12,-3 170,-21 238,-131 -54,48 -125,75 -221,78 -116,-36 -122,-39 -122,-42z"/>
    <path fill="#009341" stroke="#2A2A29" stroke-width="7.62" d="M22005 11132c24,57 15,57 18,80 0,0 -101,18 -167,12 -18,-6 -215,-57 -277,-191 57,63 140,104 265,125 152,-21 158,-24 161,-27z"/>
    <path fill="#009341" stroke="#2A2A29" stroke-width="7.62" d="M22062 11669c-27,75 -15,75 -18,104 0,0 119,27 206,18 18,-9 256,-75 334,-253 -69,83 -173,140 -322,167 -185,-27 -197,-33 -200,-36z"/>
    <path fill="#009341" stroke="#2A2A29" stroke-width="7.62" d="M22008 12271c30,69 15,69 21,98 0,0 -134,24 -224,18 -24,-6 -283,-69 -370,-241 78,80 188,134 355,158 203,-24 212,-27 218,-33z"/>
    <path fill="#009341" stroke="#2A2A29" stroke-width="7.62" d="M22065 12981c-30,69 -15,69 -18,101 0,0 143,27 244,18 24,-9 304,-69 399,-250 -83,80 -206,137 -385,164 -221,-27 -230,-30 -241,-33z"/>
    <path fill="#009341" stroke="#2A2A29" stroke-width="7.62" d="M22002 13672c36,89 18,89 21,134 0,0 -170,36 -292,24 -27,-12 -364,-89 -477,-328 98,104 244,179 459,215 262,-36 274,-39 289,-45z"/>
    <path fill="#009341" stroke="#2A2A29" stroke-width="7.62" d="M22065 14575c-36,83 -18,83 -21,122 0,0 173,33 295,24 30,-12 370,-83 486,-307 -101,98 -250,167 -465,200 -268,-33 -280,-36 -295,-39z"/>
    <path fill="#009341" stroke="#2A2A29" stroke-width="7.62" d="M21999 15452c39,81 21,81 24,122 0,0 -182,30 -310,21 -33,-12 -388,-83 -510,-301 107,95 262,164 489,197 280,-33 292,-36 307,-39z"/>
    <path fill="#DA2500" stroke="#2A2A29" stroke-width="7.62" d="M21671 15464c458,0 446,-605 0,-605 -427,0 -439,605 0,605z"/>
    <polygon fill="none" stroke="#2A2A29" stroke-width="7.62" stroke-linejoin="bevel" points="22035,10077 22038,16468 "/>
   </g>
   <g id="fleche">
    <path fill="black" stroke="#2A2A29" stroke-width="7.62" stroke-linejoin="bevel" d="M20740 12520c45,-17 207,159 202,207 -150,85 -206,128 -433,221l231 -428z"/>
    <path fill="none" stroke="#2A2A29" stroke-width="7.62" d="M21377 11989c-361,162 -285,409 -531,625"/>
   </g>
  </g>
 </g>
<image xlink:href="tick.gif" id="imgtick" x="-10000" y="-10000" width="1500" height="1500"/>
<rect id="recttooltip" x="-10000" y="-10000" width="5500" height="600" fill-opacity="0.85" pointer-events="none"/>
<text id="textboxid" x="-10000" y="-10000" pointer-events="none"> </text>
</a></svg>
