
<svg>
<g transform="translate(24000.000000,1800.000000) scale(0.2500000,-0.250000)"
fill="#0029ff" stroke="none">
  <metadata id="CorelCorpID_0Corel-Layer"/>
  <path id="Back_Grey" cursor="pointer" fill="#B8B8B8" stroke="#7F7F7F" stroke-width="7.62" d="M1910 5240 c0 -5 -360 -370 -800 -810 -440 -440 -800 -806 -800 -813 0 -15 1591 -1607 1606 -1607 13 0 658 646 662 663 1 6 -94 109 -213 227 -118 118 -215 220 -215 227 0 17 846 19 900 2 19 -5 55 -14 80 -18 52 -10 86 -22 190 -64 244 -99 485 -348 576 -593 14 -38 31 -85 39 -104 43 -117 58 -363 29 -489 -31 -141 -88 -295 -134 -366 -11 -16 -23 -37 -27 -45 -15 -34 -96 -130 -170 -200 -81 -78 -225 -180 -255 -180 -9 0 -20 -5 -23 -10 -23 -37 -279 -105 -420 -112 l-50 -3 -3 -474 -2 -473 127 6 c167 7 243 18 387 55 152 40 180 49 306 106 140 63 161 73 191 93 15 9 52 32 82 50 71 42 226 160 296 226 183 171 325 358 433 569 22 42 44 80 49 83 5 3 9 16 9 29 0 13 4 26 10 30 5 3 14 20 19 38 5 18 20 64 34 102 62 181 83 281 98 465 23 287 -13 639 -82 805 -5 11 -20 56 -34 100 -32 101 -128 290 -210 414 -201 307 -480 552 -815 718 -117 57 -263 113 -337 128 -18 4 -35 11 -38 16 -4 5 -17 9 -30 9 -13 0 -50 7 -82 15 -106 26 -283 35 -711 35 -367 0 -423 2 -428 15 -4 10 63 85 210 231 119 119
  216 221 216 228 0 6 -146 157 -325 336 -179 179 -325 331 -325 337 0 7 -4 13 -10 13 -5 0 -10 -4 -10 -10z"/>
  <!-- <text x="0" y="15" fill="red">I love SVG!</text> -->
  <text x="20" y="40" cursor="pointer" style="fill: #B8B8B8; stroke: none; font-size: 8080px; font-weight:900; " transform="translate(700.000000,-2450.000000) scale(0.2500000,-0.250000)" >
  Back
  </text>
 </g>
</svg>

